# xmcd
#
# Track frame offsets: 
#        150
#        15990
#        34068
#        52911
#        67843
#        85730
#        109530
#        127454
#        146639
#        163082
#        183501
#        204739
#        218481
#        236215
#        256405
#        270221
#        284770
#        299011
#        317966
#        334673
#
# Disc length: 4667 seconds
#
# Revision: 0
# Processed by: cddbd v1.4PL0 Copyright (c) Steve Scherf et al.
# Submitted via: ExactAudioCopy v0.95a3
#
DISCID=32123914
DTITLE=Ronnie Milsap - 40 #1 Hits [CD2]
DYEAR=2000
DGENRE=Country
TTITLE0=He Got You
TTITLE1=Inside
TTITLE2=Stranger In My House
TTITLE3=Don't Know How Much I Love You
TTITLE4=Show Her
TTITLE5=Still Losing You
TTITLE6=She Keeps The Home Fire Burning
TTITLE7=Lost In The Fifties Tonight
TTITLE8=Happy, Happy Birthday Baby
TTITLE9=In Love
TTITLE10=How Do I Turn You On
TTITLE11=Snap Your Fingers
TTITLE12=Make No Mistake She's Mine
TTITLE13=Where Do The Nights Go
TTITLE14=Don't You Ever Get Tired (Of Hurting Me)
TTITLE15=A Woman In Love
TTITLE16=Stranger Things Have Happened
TTITLE17=Since I Don't Have You
TTITLE18=Livin' On Love
TTITLE19=Time Love ANd Money
EXTD=
EXTT0=
EXTT1=
EXTT2=
EXTT3=
EXTT4=
EXTT5=
EXTT6=
EXTT7=
EXTT8=
EXTT9=
EXTT10=
EXTT11=
EXTT12=
EXTT13=
EXTT14=
EXTT15=
EXTT16=
EXTT17=
EXTT18=
EXTT19=
PLAYORDER=
